<?xml version="1.0" encoding="UTF-8"?>
<svg xmlns="http://www.w3.org/2000/svg" xmlns:xlink="http://www.w3.org/1999/xlink" width="854" height="480" viewBox="0 0 854 480">
<defs>
<g>
<g id="glyph-0-0">
<path d="M 2.851562 -7.1875 L 6.492188 -7.1875 L 6.492188 -3.8125 L 0.800781 -3.8125 L 0.800781 -2.867188 L 6.492188 -2.867188 L 6.492188 1.265625 L 7.464844 1.265625 L 7.464844 -2.867188 L 12.652344 -2.867188 L 12.652344 -3.8125 L 7.464844 -3.8125 L 7.464844 -7.1875 L 11.839844 -7.1875 L 11.839844 -8.121094 L 7.464844 -8.121094 L 7.464844 -10.917969 L 6.492188 -10.917969 L 6.492188 -8.121094 L 3.292969 -8.121094 C 3.585938 -8.785156 3.851562 -9.492188 4.09375 -10.253906 L 3.1875 -10.453125 C 2.519531 -8.425781 1.679688 -6.785156 0.640625 -5.546875 L 1.292969 -4.773438 C 1.851562 -5.480469 2.375 -6.28125 2.851562 -7.1875 Z "/>
</g>
<g id="glyph-0-1">
<path d="M 0.507812 -9.132812 L 0.507812 -8.199219 L 2.894531 -8.199219 L 2.894531 -3.652344 L 1.8125 -3.652344 L 1.8125 -7.011719 L 0.921875 -7.011719 L 0.921875 -2.761719 L 2.894531 -2.761719 L 2.894531 -0.746094 C 2.894531 -0.375 2.746094 -0.132812 2.453125 -0.0117188 L 2.707031 0.921875 C 4.054688 0.585938 5.253906 0.1875 6.292969 -0.28125 L 6.105469 -1.171875 C 5.414062 -0.828125 4.667969 -0.546875 3.851562 -0.320312 L 3.851562 -2.761719 L 5.839844 -2.761719 L 5.839844 -7.011719 L 4.933594 -7.011719 L 4.933594 -3.652344 L 3.851562 -3.652344 L 3.851562 -8.199219 L 6.09375 -8.199219 L 6.09375 -9.132812 L 3.851562 -9.132812 L 3.851562 -10.867188 L 2.894531 -10.867188 L 2.894531 -9.132812 Z M 6.441406 -10.386719 L 6.441406 -9.480469 L 9.011719 -9.480469 C 8.972656 -8.960938 8.90625 -8.453125 8.828125 -7.960938 L 6.851562 -7.960938 L 6.851562 -1.667969 L 7.785156 -1.667969 L 7.785156 -7.078125 L 11.28125 -7.078125 L 11.28125 -1.667969 L 12.214844 -1.667969 L 12.214844 -7.960938 L 9.8125 -7.960938 C 9.894531 -8.441406 9.945312 -8.945312 10 -9.480469 L 12.679688 -9.480469 L 12.679688 -10.386719 Z M 10.464844 -1.667969 L 9.8125 -1.054688 C 10.757812 -0.214844 11.507812 0.574219 12.054688 1.320312 L 12.734375 0.640625 C 12.121094 -0.132812 11.359375 -0.894531 10.464844 -1.667969 Z M 9.027344 -6.226562 L 9.027344 -3.933594 C 9 -2.785156 8.800781 -1.867188 8.425781 -1.160156 C 8.027344 -0.464844 7.320312 0.078125 6.304688 0.492188 L 6.828125 1.304688 C 7.917969 0.851562 8.691406 0.238281 9.171875 -0.535156 C 9.667969 -1.386719 9.933594 -2.519531 9.960938 -3.933594 L 9.960938 -6.226562 Z "/>
</g>
<g id="glyph-0-2">
<path d="M 6.292969 -6.492188 L 6.292969 -5.214844 L 2.160156 -5.214844 L 1.546875 -2.1875 L 5.199219 -2.1875 C 4.398438 -1.292969 2.933594 -0.492188 0.800781 0.214844 L 1.347656 1.09375 C 3.746094 0.1875 5.375 -0.90625 6.253906 -2.1875 L 6.292969 -2.1875 L 6.292969 1.347656 L 7.226562 1.347656 L 7.226562 -2.1875 L 11.066406 -2.1875 C 11.066406 -1.464844 11.027344 -0.972656 10.945312 -0.707031 C 10.839844 -0.414062 10.585938 -0.253906 10.1875 -0.253906 C 9.652344 -0.253906 9.066406 -0.265625 8.453125 -0.292969 L 8.691406 0.613281 C 9.226562 0.625 9.773438 0.640625 10.332031 0.640625 C 11.054688 0.625 11.519531 0.398438 11.734375 -0.0546875 C 11.933594 -0.453125 12.039062 -1.453125 12.039062 -3.027344 L 7.226562 -3.027344 L 7.226562 -4.332031 L 11.574219 -4.332031 L 11.574219 -7.375 L 1.851562 -7.375 L 1.851562 -6.492188 Z M 6.292969 -4.332031 L 6.292969 -3.027344 L 2.679688 -3.027344 L 3 -4.332031 Z M 7.226562 -5.214844 L 7.226562 -6.492188 L 10.585938 -6.492188 L 10.585938 -5.214844 Z M 2.640625 -9.121094 L 3.453125 -9.121094 C 3.828125 -8.652344 4.148438 -8.171875 4.414062 -7.679688 L 5.28125 -8 C 5.078125 -8.347656 4.8125 -8.71875 4.480469 -9.121094 L 6.679688 -9.121094 L 6.679688 -9.960938 L 3.132812 -9.960938 C 3.253906 -10.226562 3.375 -10.492188 3.492188 -10.785156 L 2.574219 -10.988281 C 2.1875 -10 1.574219 -9.105469 0.71875 -8.292969 L 1.558594 -7.773438 C 1.960938 -8.1875 2.320312 -8.640625 2.640625 -9.121094 Z M 8.265625 -9.160156 L 9.1875 -9.160156 C 9.558594 -8.679688 9.894531 -8.1875 10.160156 -7.667969 L 11.011719 -7.988281 C 10.8125 -8.347656 10.546875 -8.734375 10.214844 -9.160156 L 12.625 -9.160156 L 12.625 -10 L 8.691406 -10 C 8.800781 -10.253906 8.90625 -10.519531 9 -10.785156 L 8.078125 -10.988281 C 7.734375 -10 7.199219 -9.09375 6.453125 -8.28125 L 7.28125 -7.761719 C 7.652344 -8.1875 7.972656 -8.652344 8.265625 -9.160156 Z "/>
</g>
<g id="glyph-0-3">
<path d="M 1.933594 -9.414062 L 1.933594 -8.464844 L 11.398438 -8.464844 L 11.398438 -9.414062 Z M 0.707031 -1.027344 L 0.707031 -0.0546875 L 12.613281 -0.0546875 L 12.613281 -1.027344 Z "/>
</g>
<g id="glyph-0-4">
<path d="M 2.761719 -6.933594 L 2.761719 -6.027344 L 6.253906 -6.027344 L 6.253906 -0.214844 C 6.121094 -0.238281 5.988281 -0.28125 5.867188 -0.320312 C 4.90625 -0.625 4.105469 -1.347656 3.464844 -2.492188 C 3.707031 -3.1875 3.917969 -3.945312 4.078125 -4.773438 L 3.148438 -4.933594 C 2.691406 -2.640625 1.839844 -0.8125 0.558594 0.546875 L 1.171875 1.304688 C 1.933594 0.535156 2.574219 -0.425781 3.09375 -1.574219 C 3.640625 -0.707031 4.359375 -0.0664062 5.238281 0.347656 C 6.414062 0.839844 8.332031 1.09375 11.027344 1.09375 L 12.519531 1.09375 L 12.691406 0.132812 C 11.972656 0.1875 11.28125 0.214844 10.601562 0.214844 C 9.265625 0.199219 8.144531 0.121094 7.214844 -0.0117188 L 7.214844 -2.773438 L 11.1875 -2.773438 L 11.1875 -3.679688 L 7.214844 -3.679688 L 7.214844 -6.027344 L 10.601562 -6.027344 L 10.601562 -6.933594 Z M 12.121094 -9.53125 L 7.28125 -9.53125 C 7.09375 -10.078125 6.878906 -10.574219 6.667969 -11.011719 L 5.640625 -10.851562 C 5.878906 -10.453125 6.105469 -10.011719 6.304688 -9.53125 L 1.214844 -9.53125 L 1.214844 -6.625 L 2.148438 -6.625 L 2.148438 -8.652344 L 11.1875 -8.652344 L 11.1875 -6.691406 L 12.121094 -6.691406 Z "/>
</g>
<g id="glyph-0-5">
<path d="M 11.574219 -4.800781 L 11.574219 -6.839844 L 12.757812 -6.839844 L 12.757812 -7.679688 L 11.574219 -7.679688 L 11.574219 -9.734375 L 8.734375 -9.734375 L 8.734375 -10.894531 L 7.746094 -10.894531 L 7.746094 -9.734375 L 5.292969 -9.734375 L 5.292969 -8.878906 L 7.746094 -8.878906 L 7.746094 -7.679688 L 4.613281 -7.679688 L 4.613281 -6.839844 L 7.746094 -6.839844 L 7.746094 -5.652344 L 5.214844 -5.652344 L 5.214844 -4.800781 L 7.746094 -4.800781 L 7.746094 -3.667969 L 5.054688 -3.667969 L 5.054688 -2.8125 L 7.746094 -2.8125 L 7.746094 -1.574219 L 4.398438 -1.574219 L 4.398438 -0.691406 L 7.746094 -0.691406 L 7.746094 1.359375 L 8.734375 1.359375 L 8.734375 -0.691406 L 12.613281 -0.691406 L 12.613281 -1.574219 L 8.734375 -1.574219 L 8.734375 -2.8125 L 11.878906 -2.8125 L 11.878906 -3.667969 L 8.734375 -3.667969 L 8.734375 -4.800781 Z M 8.734375 -8.878906 L 10.667969 -8.878906 L 10.667969 -7.679688 L 8.734375 -7.679688 Z M 8.734375 -6.839844 L 10.667969 -6.839844 L 10.667969 -5.652344 L 8.734375 -5.652344 Z M 2.375 -4.304688 L 2.375 1.332031 L 3.304688 1.332031 L 3.304688 -5.441406 C 3.667969 -5.945312 3.972656 -6.492188 4.238281 -7.054688 L 3.398438 -7.425781 C 2.8125 -6.105469 1.878906 -4.933594 0.601562 -3.894531 L 0.878906 -2.972656 C 1.414062 -3.386719 1.921875 -3.828125 2.375 -4.304688 Z M 3.28125 -10.933594 C 2.71875 -9.691406 1.8125 -8.585938 0.574219 -7.625 L 0.851562 -6.691406 C 2.359375 -7.8125 3.453125 -9.09375 4.121094 -10.546875 Z "/>
</g>
</g>
</defs>
<g fill="rgb(100%, 100%, 100%)" fill-opacity="1">
<use xlink:href="#glyph-0-0" x="30" y="34.132812"/>
<use xlink:href="#glyph-0-1" x="43" y="34.132812"/>
<use xlink:href="#glyph-0-2" x="56" y="34.132812"/>
<use xlink:href="#glyph-0-3" x="69" y="34.132812"/>
<use xlink:href="#glyph-0-4" x="82" y="34.132812"/>
<use xlink:href="#glyph-0-5" x="95" y="34.132812"/>
</g>
</svg>
