<?xml version="1.0" encoding="UTF-8"?>
<svg xmlns="http://www.w3.org/2000/svg" xmlns:xlink="http://www.w3.org/1999/xlink" width="854" height="480" viewBox="0 0 854 480">
<defs>
<g>
<g id="glyph-0-0">
<path d="M 5.480469 -6.480469 C 5.121094 -5.660156 4.570312 -5.011719 3.851562 -4.519531 L 4.371094 -4.070312 C 5.078125 -4.570312 5.648438 -5.289062 6.089844 -6.238281 Z M 7.25 -6.488281 L 6.71875 -6.148438 C 7.429688 -5.410156 7.988281 -4.738281 8.398438 -4.121094 L 8.980469 -4.519531 C 8.578125 -5.078125 8 -5.738281 7.25 -6.488281 Z M 1.660156 0.960938 C 2.21875 0.960938 2.5 0.679688 2.5 0.121094 L 2.5 -2.898438 C 2.808594 -3.039062 3.121094 -3.179688 3.421875 -3.339844 L 3.421875 -4.058594 C 3.121094 -3.898438 2.808594 -3.75 2.5 -3.609375 L 2.5 -5.558594 L 3.429688 -5.558594 L 3.429688 -6.25 L 2.5 -6.25 L 2.5 -8.140625 L 1.78125 -8.140625 L 1.78125 -6.25 L 0.589844 -6.25 L 0.589844 -5.558594 L 1.78125 -5.558594 L 1.78125 -3.320312 C 1.328125 -3.160156 0.878906 -3.019531 0.421875 -2.910156 L 0.601562 -2.191406 C 1 -2.308594 1.390625 -2.449219 1.78125 -2.601562 L 1.78125 -0.0585938 C 1.78125 0.191406 1.648438 0.320312 1.410156 0.320312 C 1.148438 0.320312 0.878906 0.300781 0.601562 0.269531 L 0.75 0.960938 Z M 9.089844 -7.769531 L 3.851562 -7.769531 L 3.851562 -5.871094 L 4.53125 -5.871094 L 4.53125 -7.121094 L 8.410156 -7.121094 L 8.410156 -5.910156 L 9.089844 -5.910156 Z M 5.351562 -2.710938 C 4.878906 -1.691406 4.128906 -0.851562 3.109375 -0.191406 L 3.46875 0.421875 C 4.589844 -0.398438 5.390625 -1.441406 5.871094 -2.710938 L 6.101562 -2.710938 L 6.101562 0.960938 L 6.789062 0.960938 L 6.789062 -2.710938 L 7.019531 -2.710938 C 7.421875 -1.589844 8.121094 -0.578125 9.128906 0.328125 L 9.578125 -0.238281 C 8.621094 -0.96875 7.941406 -1.789062 7.53125 -2.710938 L 9.261719 -2.710938 L 9.261719 -3.359375 L 6.789062 -3.359375 L 6.789062 -4.480469 L 6.101562 -4.480469 L 6.101562 -3.359375 L 3.648438 -3.359375 L 3.648438 -2.710938 Z "/>
</g>
<g id="glyph-0-1">
<path d="M 1.261719 -7.378906 L 1.261719 -6.71875 L 4.628906 -6.71875 L 4.628906 -5.851562 L 0.851562 -5.851562 L 0.851562 -4.03125 L 1.550781 -4.03125 L 1.550781 -5.21875 L 4.53125 -5.21875 C 3.949219 -4.71875 3.328125 -4.28125 2.679688 -3.910156 C 2.53125 -3.828125 2.378906 -3.769531 2.230469 -3.738281 L 2.371094 -3.191406 C 3.238281 -3.210938 4.011719 -3.238281 4.691406 -3.261719 C 3.808594 -2.761719 2.96875 -2.398438 2.148438 -2.171875 C 1.949219 -2.171875 1.738281 -2.179688 1.53125 -2.191406 L 1.671875 -1.539062 C 2.589844 -1.558594 3.601562 -1.601562 4.699219 -1.648438 L 4.699219 0.0585938 C 4.699219 0.261719 4.578125 0.371094 4.359375 0.371094 C 4.101562 0.371094 3.820312 0.351562 3.539062 0.320312 L 3.691406 0.988281 L 4.601562 0.988281 C 5.140625 0.988281 5.421875 0.730469 5.421875 0.230469 L 5.421875 -1.679688 C 6.140625 -1.71875 6.898438 -1.769531 7.710938 -1.820312 C 7.910156 -1.578125 8.089844 -1.339844 8.25 -1.101562 L 8.789062 -1.488281 C 8.398438 -2.03125 7.839844 -2.648438 7.109375 -3.359375 L 6.589844 -3.03125 C 6.828125 -2.789062 7.058594 -2.558594 7.28125 -2.320312 C 5.980469 -2.230469 4.691406 -2.160156 3.390625 -2.121094 C 4.75 -2.601562 6.011719 -3.269531 7.191406 -4.148438 L 6.609375 -4.539062 C 6.25 -4.28125 5.890625 -4.03125 5.539062 -3.789062 C 4.980469 -3.75 4.230469 -3.730469 3.308594 -3.710938 C 3.960938 -4.058594 4.578125 -4.46875 5.179688 -4.949219 L 4.628906 -5.21875 L 8.449219 -5.21875 L 8.449219 -4.019531 L 9.148438 -4.019531 L 9.148438 -5.851562 L 5.371094 -5.851562 L 5.371094 -6.71875 L 8.738281 -6.71875 L 8.738281 -7.378906 L 5.371094 -7.378906 L 5.371094 -8.171875 L 4.628906 -8.171875 L 4.628906 -7.378906 Z M 6.480469 -1.148438 L 6.121094 -0.621094 C 7.078125 -0.269531 8.019531 0.210938 8.941406 0.808594 L 9.308594 0.230469 C 8.460938 -0.308594 7.519531 -0.769531 6.480469 -1.148438 Z M 3.328125 -1.171875 C 2.621094 -0.628906 1.71875 -0.191406 0.628906 0.140625 L 0.929688 0.78125 C 2.058594 0.390625 3 -0.101562 3.75 -0.699219 Z "/>
</g>
<g id="glyph-0-2">
<rect x="0" y="0" width="0" height="0" mask="url(#mask-0)"/>
</g>
<g id="glyph-0-3">
<path d="M 2.140625 -5.390625 L 4.871094 -5.390625 L 4.871094 -2.859375 L 0.601562 -2.859375 L 0.601562 -2.148438 L 4.871094 -2.148438 L 4.871094 0.949219 L 5.601562 0.949219 L 5.601562 -2.148438 L 9.488281 -2.148438 L 9.488281 -2.859375 L 5.601562 -2.859375 L 5.601562 -5.390625 L 8.878906 -5.390625 L 8.878906 -6.089844 L 5.601562 -6.089844 L 5.601562 -8.191406 L 4.871094 -8.191406 L 4.871094 -6.089844 L 2.46875 -6.089844 C 2.691406 -6.589844 2.890625 -7.121094 3.070312 -7.691406 L 2.390625 -7.839844 C 1.890625 -6.320312 1.261719 -5.089844 0.480469 -4.160156 L 0.96875 -3.578125 C 1.390625 -4.109375 1.78125 -4.710938 2.140625 -5.390625 Z "/>
</g>
<g id="glyph-0-4">
<path d="M 0.378906 -6.851562 L 0.378906 -6.148438 L 2.171875 -6.148438 L 2.171875 -2.738281 L 1.359375 -2.738281 L 1.359375 -5.261719 L 0.691406 -5.261719 L 0.691406 -2.070312 L 2.171875 -2.070312 L 2.171875 -0.558594 C 2.171875 -0.28125 2.058594 -0.101562 1.839844 -0.0117188 L 2.03125 0.691406 C 3.039062 0.441406 3.941406 0.140625 4.71875 -0.210938 L 4.578125 -0.878906 C 4.058594 -0.621094 3.5 -0.410156 2.890625 -0.238281 L 2.890625 -2.070312 L 4.378906 -2.070312 L 4.378906 -5.261719 L 3.699219 -5.261719 L 3.699219 -2.738281 L 2.890625 -2.738281 L 2.890625 -6.148438 L 4.570312 -6.148438 L 4.570312 -6.851562 L 2.890625 -6.851562 L 2.890625 -8.148438 L 2.171875 -8.148438 L 2.171875 -6.851562 Z M 4.828125 -7.789062 L 4.828125 -7.109375 L 6.761719 -7.109375 C 6.730469 -6.71875 6.679688 -6.339844 6.621094 -5.96875 L 5.140625 -5.96875 L 5.140625 -1.25 L 5.839844 -1.25 L 5.839844 -5.308594 L 8.460938 -5.308594 L 8.460938 -1.25 L 9.160156 -1.25 L 9.160156 -5.96875 L 7.359375 -5.96875 C 7.421875 -6.328125 7.460938 -6.710938 7.5 -7.109375 L 9.511719 -7.109375 L 9.511719 -7.789062 Z M 7.851562 -1.25 L 7.359375 -0.789062 C 8.070312 -0.160156 8.628906 0.429688 9.039062 0.988281 L 9.550781 0.480469 C 9.089844 -0.101562 8.519531 -0.671875 7.851562 -1.25 Z M 6.769531 -4.671875 L 6.769531 -2.949219 C 6.75 -2.089844 6.601562 -1.398438 6.320312 -0.871094 C 6.019531 -0.351562 5.488281 0.0585938 4.730469 0.371094 L 5.121094 0.980469 C 5.941406 0.640625 6.519531 0.179688 6.878906 -0.398438 C 7.25 -1.039062 7.449219 -1.890625 7.46875 -2.949219 L 7.46875 -4.671875 Z "/>
</g>
<g id="glyph-0-5">
<path d="M 4.71875 -4.871094 L 4.71875 -3.910156 L 1.621094 -3.910156 L 1.160156 -1.640625 L 3.898438 -1.640625 C 3.300781 -0.96875 2.199219 -0.371094 0.601562 0.160156 L 1.011719 0.820312 C 2.808594 0.140625 4.03125 -0.679688 4.691406 -1.640625 L 4.71875 -1.640625 L 4.71875 1.011719 L 5.421875 1.011719 L 5.421875 -1.640625 L 8.300781 -1.640625 C 8.300781 -1.101562 8.269531 -0.730469 8.210938 -0.53125 C 8.128906 -0.308594 7.941406 -0.191406 7.640625 -0.191406 C 7.238281 -0.191406 6.800781 -0.199219 6.339844 -0.21875 L 6.519531 0.460938 C 6.921875 0.46875 7.328125 0.480469 7.75 0.480469 C 8.289062 0.46875 8.640625 0.300781 8.800781 -0.0390625 C 8.949219 -0.339844 9.03125 -1.089844 9.03125 -2.269531 L 5.421875 -2.269531 L 5.421875 -3.25 L 8.679688 -3.25 L 8.679688 -5.53125 L 1.390625 -5.53125 L 1.390625 -4.871094 Z M 4.71875 -3.25 L 4.71875 -2.269531 L 2.011719 -2.269531 L 2.25 -3.25 Z M 5.421875 -3.910156 L 5.421875 -4.871094 L 7.941406 -4.871094 L 7.941406 -3.910156 Z M 1.980469 -6.839844 L 2.589844 -6.839844 C 2.871094 -6.488281 3.109375 -6.128906 3.308594 -5.761719 L 3.960938 -6 C 3.808594 -6.261719 3.609375 -6.539062 3.359375 -6.839844 L 5.011719 -6.839844 L 5.011719 -7.46875 L 2.351562 -7.46875 C 2.441406 -7.671875 2.53125 -7.871094 2.621094 -8.089844 L 1.929688 -8.238281 C 1.640625 -7.5 1.179688 -6.828125 0.539062 -6.21875 L 1.171875 -5.828125 C 1.46875 -6.140625 1.738281 -6.480469 1.980469 -6.839844 Z M 6.199219 -6.871094 L 6.890625 -6.871094 C 7.171875 -6.511719 7.421875 -6.140625 7.621094 -5.75 L 8.261719 -5.988281 C 8.109375 -6.261719 7.910156 -6.550781 7.660156 -6.871094 L 9.46875 -6.871094 L 9.46875 -7.5 L 6.519531 -7.5 C 6.601562 -7.691406 6.679688 -7.890625 6.75 -8.089844 L 6.058594 -8.238281 C 5.800781 -7.5 5.398438 -6.820312 4.839844 -6.210938 L 5.460938 -5.820312 C 5.738281 -6.140625 5.980469 -6.488281 6.199219 -6.871094 Z "/>
</g>
<g id="glyph-0-6">
<path d="M 1.449219 -7.058594 L 1.449219 -6.351562 L 8.550781 -6.351562 L 8.550781 -7.058594 Z M 0.53125 -0.769531 L 0.53125 -0.0390625 L 9.460938 -0.0390625 L 9.460938 -0.769531 Z "/>
</g>
<g id="glyph-0-7">
<path d="M 2.070312 -5.199219 L 2.070312 -4.519531 L 4.691406 -4.519531 L 4.691406 -0.160156 C 4.589844 -0.179688 4.488281 -0.210938 4.398438 -0.238281 C 3.679688 -0.46875 3.078125 -1.011719 2.601562 -1.871094 C 2.78125 -2.390625 2.941406 -2.960938 3.058594 -3.578125 L 2.359375 -3.699219 C 2.019531 -1.980469 1.378906 -0.609375 0.421875 0.410156 L 0.878906 0.980469 C 1.449219 0.398438 1.929688 -0.320312 2.320312 -1.179688 C 2.730469 -0.53125 3.269531 -0.0507812 3.929688 0.261719 C 4.808594 0.628906 6.25 0.820312 8.269531 0.820312 L 9.390625 0.820312 L 9.519531 0.101562 C 8.980469 0.140625 8.460938 0.160156 7.949219 0.160156 C 6.949219 0.148438 6.109375 0.0898438 5.410156 -0.0117188 L 5.410156 -2.078125 L 8.390625 -2.078125 L 8.390625 -2.761719 L 5.410156 -2.761719 L 5.410156 -4.519531 L 7.949219 -4.519531 L 7.949219 -5.199219 Z M 9.089844 -7.148438 L 5.460938 -7.148438 C 5.320312 -7.558594 5.160156 -7.929688 5 -8.261719 L 4.230469 -8.140625 C 4.410156 -7.839844 4.578125 -7.511719 4.730469 -7.148438 L 0.910156 -7.148438 L 0.910156 -4.96875 L 1.609375 -4.96875 L 1.609375 -6.488281 L 8.390625 -6.488281 L 8.390625 -5.019531 L 9.089844 -5.019531 Z "/>
</g>
<g id="glyph-0-8">
<path d="M 8.679688 -3.601562 L 8.679688 -5.128906 L 9.570312 -5.128906 L 9.570312 -5.761719 L 8.679688 -5.761719 L 8.679688 -7.300781 L 6.550781 -7.300781 L 6.550781 -8.171875 L 5.808594 -8.171875 L 5.808594 -7.300781 L 3.96875 -7.300781 L 3.96875 -6.660156 L 5.808594 -6.660156 L 5.808594 -5.761719 L 3.460938 -5.761719 L 3.460938 -5.128906 L 5.808594 -5.128906 L 5.808594 -4.238281 L 3.910156 -4.238281 L 3.910156 -3.601562 L 5.808594 -3.601562 L 5.808594 -2.75 L 3.789062 -2.75 L 3.789062 -2.109375 L 5.808594 -2.109375 L 5.808594 -1.179688 L 3.300781 -1.179688 L 3.300781 -0.519531 L 5.808594 -0.519531 L 5.808594 1.019531 L 6.550781 1.019531 L 6.550781 -0.519531 L 9.460938 -0.519531 L 9.460938 -1.179688 L 6.550781 -1.179688 L 6.550781 -2.109375 L 8.910156 -2.109375 L 8.910156 -2.75 L 6.550781 -2.75 L 6.550781 -3.601562 Z M 6.550781 -6.660156 L 8 -6.660156 L 8 -5.761719 L 6.550781 -5.761719 Z M 6.550781 -5.128906 L 8 -5.128906 L 8 -4.238281 L 6.550781 -4.238281 Z M 1.78125 -3.230469 L 1.78125 1 L 2.480469 1 L 2.480469 -4.078125 C 2.75 -4.460938 2.980469 -4.871094 3.179688 -5.289062 L 2.550781 -5.570312 C 2.109375 -4.578125 1.410156 -3.699219 0.449219 -2.921875 L 0.660156 -2.230469 C 1.058594 -2.539062 1.441406 -2.871094 1.78125 -3.230469 Z M 2.460938 -8.199219 C 2.039062 -7.269531 1.359375 -6.441406 0.429688 -5.71875 L 0.640625 -5.019531 C 1.769531 -5.859375 2.589844 -6.820312 3.089844 -7.910156 Z "/>
</g>
<g id="glyph-0-9">
<path d="M 4.039062 -6.441406 L 2.429688 -6.441406 C 2.628906 -6.941406 2.78125 -7.488281 2.898438 -8.078125 L 2.179688 -8.179688 C 2.089844 -7.578125 1.949219 -7 1.75 -6.441406 L 0.820312 -6.441406 L 0.820312 0.671875 L 1.519531 0.671875 L 1.519531 -0.191406 L 3.339844 -0.191406 L 3.339844 0.378906 L 4.039062 0.378906 Z M 1.519531 -0.859375 L 1.519531 -3.050781 L 3.339844 -3.050781 L 3.339844 -0.859375 Z M 1.519531 -3.699219 L 1.519531 -5.761719 L 3.339844 -5.761719 L 3.339844 -3.699219 Z M 5.78125 -4.121094 L 5.199219 -3.761719 C 5.890625 -2.941406 6.441406 -2.199219 6.851562 -1.539062 L 7.421875 -1.941406 C 7.039062 -2.558594 6.5 -3.289062 5.78125 -4.121094 Z M 9.210938 -6.429688 L 6.019531 -6.429688 C 6.199219 -6.949219 6.339844 -7.511719 6.460938 -8.101562 L 5.75 -8.191406 C 5.488281 -6.769531 5.019531 -5.570312 4.320312 -4.589844 L 4.75 -4.019531 C 5.140625 -4.53125 5.46875 -5.101562 5.75 -5.730469 L 8.5 -5.730469 C 8.480469 -2.851562 8.441406 -1.121094 8.378906 -0.558594 C 8.300781 -0.0507812 8.03125 0.210938 7.558594 0.210938 C 7.25 0.210938 6.890625 0.199219 6.46875 0.179688 L 6.640625 0.839844 C 7.121094 0.859375 7.460938 0.878906 7.660156 0.878906 C 8.5 0.878906 8.960938 0.488281 9.058594 -0.269531 C 9.160156 -1.050781 9.210938 -3.109375 9.210938 -6.429688 Z "/>
</g>
<g id="glyph-0-10">
<path d="M 4.511719 -8.261719 C 4.429688 -7.980469 4.320312 -7.710938 4.179688 -7.449219 L 1.660156 -7.449219 L 1.660156 -2.53125 L 2.351562 -2.53125 L 2.351562 -6.820312 L 7.660156 -6.820312 L 7.660156 -2.53125 L 8.351562 -2.53125 L 8.351562 -7.449219 L 4.96875 -7.449219 C 5.109375 -7.671875 5.21875 -7.898438 5.300781 -8.148438 Z M 4.648438 -2.671875 C 4.609375 -2.429688 4.539062 -2.191406 4.460938 -1.96875 L 0.738281 -1.96875 L 0.738281 -1.289062 L 4.089844 -1.289062 C 3.929688 -1.078125 3.730469 -0.890625 3.488281 -0.710938 C 2.859375 -0.25 1.828125 0.109375 0.398438 0.351562 L 0.691406 1.03125 C 2.308594 0.71875 3.441406 0.300781 4.078125 -0.21875 C 4.441406 -0.519531 4.738281 -0.878906 4.960938 -1.289062 L 4.980469 -1.289062 C 5.878906 -0.160156 7.28125 0.609375 9.179688 1.011719 L 9.601562 0.339844 C 7.878906 0.0390625 6.609375 -0.5 5.789062 -1.289062 L 9.269531 -1.289062 L 9.269531 -1.96875 L 5.25 -1.96875 C 5.308594 -2.171875 5.351562 -2.378906 5.390625 -2.601562 Z M 2.898438 -5.121094 L 2.898438 -4.539062 L 4.691406 -4.539062 C 4.128906 -4.050781 3.480469 -3.648438 2.71875 -3.339844 L 3.058594 -2.769531 C 3.671875 -3.121094 4.210938 -3.539062 4.691406 -4.019531 L 4.691406 -2.910156 L 5.308594 -2.910156 L 5.308594 -3.921875 C 5.71875 -3.660156 6.230469 -3.28125 6.828125 -2.789062 L 7.191406 -3.328125 C 6.550781 -3.730469 5.929688 -4.078125 5.308594 -4.378906 L 5.308594 -4.539062 L 7.128906 -4.539062 L 7.128906 -5.121094 L 6.390625 -5.121094 C 6.570312 -5.429688 6.738281 -5.78125 6.890625 -6.160156 L 6.339844 -6.351562 C 6.199219 -5.910156 6.03125 -5.5 5.828125 -5.121094 L 5.308594 -5.121094 L 5.308594 -6.46875 L 4.691406 -6.46875 L 4.691406 -5.121094 L 4.171875 -5.121094 C 4.011719 -5.578125 3.851562 -5.960938 3.671875 -6.28125 L 3.140625 -6.078125 C 3.320312 -5.789062 3.480469 -5.46875 3.621094 -5.121094 Z "/>
</g>
<g id="glyph-0-11">
<path d="M 0.570312 -5.429688 L 0.570312 -4.738281 L 1.839844 -4.738281 C 1.539062 -3.640625 1.050781 -2.648438 0.371094 -1.769531 L 0.671875 -1.03125 C 1.199219 -1.789062 1.621094 -2.640625 1.941406 -3.578125 L 1.941406 0.960938 L 2.628906 0.960938 L 2.628906 -3.671875 C 2.828125 -3.378906 3.070312 -3.011719 3.328125 -2.570312 L 3.699219 -3.140625 C 3.339844 -3.589844 2.980469 -3.988281 2.628906 -4.351562 L 2.628906 -4.738281 L 3.738281 -4.738281 L 3.738281 -5.429688 L 2.628906 -5.429688 L 2.628906 -7 C 3.078125 -7.109375 3.5 -7.230469 3.890625 -7.359375 L 3.640625 -8.03125 C 2.769531 -7.699219 1.769531 -7.480469 0.640625 -7.359375 L 0.78125 -6.679688 C 1.171875 -6.730469 1.558594 -6.789062 1.941406 -6.859375 L 1.941406 -5.429688 Z M 7.648438 0.710938 C 8.011719 0.710938 8.269531 0.609375 8.429688 0.429688 C 8.628906 0.21875 8.75 -0.371094 8.808594 -1.351562 L 8.148438 -1.558594 C 8.109375 -0.78125 8.039062 -0.308594 7.929688 -0.148438 C 7.851562 -0.0195312 7.71875 0.0507812 7.519531 0.0507812 L 6.609375 0.0507812 C 6.359375 0.0507812 6.238281 -0.0703125 6.238281 -0.308594 L 6.238281 -1.398438 C 7.398438 -2.851562 8.300781 -4.828125 8.941406 -7.351562 L 8.289062 -7.628906 C 7.808594 -5.609375 7.128906 -3.929688 6.238281 -2.601562 L 6.238281 -6.210938 L 5.550781 -6.210938 L 5.550781 -1.691406 C 4.910156 -0.949219 4.179688 -0.351562 3.339844 0.101562 L 3.75 0.699219 C 4.390625 0.359375 4.988281 -0.0898438 5.550781 -0.640625 L 5.550781 -0.171875 C 5.550781 0.410156 5.828125 0.710938 6.398438 0.710938 Z M 4.519531 -5.191406 C 4.339844 -4.03125 4.078125 -2.960938 3.71875 -2 L 4.308594 -1.621094 C 4.660156 -2.589844 4.929688 -3.738281 5.109375 -5.070312 Z M 8.699219 -4.730469 L 8.078125 -4.53125 C 8.421875 -3.78125 8.730469 -2.921875 9.011719 -1.941406 L 9.621094 -2.210938 C 9.359375 -3.101562 9.058594 -3.941406 8.699219 -4.730469 Z M 5.789062 -8.179688 L 5.308594 -7.730469 C 6.039062 -7.148438 6.609375 -6.609375 7.03125 -6.101562 L 7.53125 -6.589844 C 7.050781 -7.121094 6.46875 -7.648438 5.789062 -8.179688 Z "/>
</g>
</g>
<image id="source-18" x="0" y="0" width="0" height="0"/>
<mask id="mask-0">
<use xlink:href="#source-18"/>
</mask>
</defs>
<g fill="rgb(51.372549%, 75.686275%, 40.392157%)" fill-opacity="1">
<use xlink:href="#glyph-0-0" x="30" y="30.599609"/>
<use xlink:href="#glyph-0-1" x="40" y="30.599609"/>
<use xlink:href="#glyph-0-2" x="50" y="30.599609"/>
<use xlink:href="#glyph-0-3" x="53" y="30.599609"/>
<use xlink:href="#glyph-0-4" x="63" y="30.599609"/>
<use xlink:href="#glyph-0-5" x="73" y="30.599609"/>
<use xlink:href="#glyph-0-6" x="83" y="30.599609"/>
<use xlink:href="#glyph-0-7" x="93" y="30.599609"/>
<use xlink:href="#glyph-0-8" x="103" y="30.599609"/>
<use xlink:href="#glyph-0-2" x="113" y="30.599609"/>
<use xlink:href="#glyph-0-9" x="116" y="30.599609"/>
<use xlink:href="#glyph-0-10" x="126" y="30.599609"/>
<use xlink:href="#glyph-0-11" x="136" y="30.599609"/>
</g>
</svg>
