<?xml version="1.0" encoding="UTF-8"?>
<svg xmlns="http://www.w3.org/2000/svg" xmlns:xlink="http://www.w3.org/1999/xlink" width="1280" height="720" viewBox="0 0 1280 720">
<defs>
<g>
<g id="glyph-0-0">
<path d="M 3.792969 -4.472656 L 3.792969 -3.945312 C 3.773438 -1.980469 3.234375 -0.554688 2.179688 0.339844 L 2.546875 0.660156 C 3.667969 -0.3125 4.238281 -1.847656 4.265625 -3.945312 L 4.265625 -4.472656 L 5.632812 -4.472656 C 5.621094 -2.472656 5.59375 -1.28125 5.554688 -0.886719 C 5.492188 -0.21875 5.265625 0.113281 4.875 0.113281 C 4.648438 0.113281 4.378906 0.101562 4.066406 0.0859375 L 4.1875 0.527344 C 4.546875 0.539062 4.800781 0.554688 4.945312 0.554688 C 5.585938 0.554688 5.941406 0.132812 6.019531 -0.695312 C 6.085938 -1.234375 6.121094 -2.648438 6.121094 -4.933594 L 2.808594 -4.933594 L 2.808594 -4.472656 Z M 1.234375 -2.007812 L 1.234375 0.667969 L 1.695312 0.667969 L 1.695312 -2.09375 C 2 -1.828125 2.300781 -1.507812 2.601562 -1.121094 L 2.859375 -1.519531 C 2.695312 -1.707031 2.511719 -1.878906 2.320312 -2.046875 C 2.566406 -2.214844 2.785156 -2.441406 2.988281 -2.71875 L 2.695312 -3.011719 C 2.480469 -2.695312 2.253906 -2.445312 2.027344 -2.285156 C 1.921875 -2.375 1.8125 -2.453125 1.695312 -2.535156 L 1.695312 -2.582031 C 2.035156 -3.054688 2.28125 -3.535156 2.441406 -4.011719 L 2.441406 -4.40625 L 1.519531 -4.40625 L 1.753906 -4.5 C 1.667969 -4.792969 1.539062 -5.113281 1.375 -5.460938 L 0.90625 -5.332031 C 1.066406 -5.035156 1.199219 -4.726562 1.308594 -4.40625 L 0.40625 -4.40625 L 0.40625 -3.96875 L 1.972656 -3.96875 C 1.695312 -3.21875 1.121094 -2.445312 0.261719 -1.660156 L 0.398438 -1.171875 C 0.707031 -1.453125 0.980469 -1.726562 1.234375 -2.007812 Z "/>
</g>
<g id="glyph-0-1">
<path d="M 6.082031 -5.054688 L 2.96875 -5.054688 L 2.96875 0.671875 L 3.425781 0.671875 L 3.425781 0.253906 L 5.613281 0.253906 L 5.613281 0.667969 L 6.082031 0.667969 Z M 3.425781 -0.199219 L 3.425781 -1.378906 L 5.613281 -1.378906 L 5.613281 -0.199219 Z M 3.425781 -1.828125 L 3.425781 -3.007812 L 5.613281 -3.007812 L 5.613281 -1.828125 Z M 3.425781 -3.453125 L 3.425781 -4.601562 L 5.613281 -4.601562 L 5.613281 -3.453125 Z M 1.792969 -2.820312 C 1.980469 -2.574219 2.199219 -2.253906 2.453125 -1.867188 L 2.714844 -2.253906 C 2.40625 -2.648438 2.101562 -3.007812 1.792969 -3.328125 L 1.792969 -3.679688 L 2.652344 -3.679688 L 2.652344 -4.140625 L 1.792969 -4.140625 L 1.792969 -5.441406 L 1.320312 -5.441406 L 1.320312 -4.140625 L 0.378906 -4.140625 L 0.378906 -3.679688 L 1.308594 -3.679688 C 1.09375 -2.847656 0.746094 -2.105469 0.261719 -1.460938 L 0.445312 -0.988281 C 0.808594 -1.507812 1.09375 -2.082031 1.320312 -2.71875 L 1.320312 0.660156 L 1.792969 0.660156 Z "/>
</g>
<g id="glyph-0-2">
<path d="M 1.792969 -5.488281 C 1.464844 -4.453125 0.945312 -3.539062 0.238281 -2.738281 L 0.394531 -2.226562 C 0.652344 -2.5 0.894531 -2.785156 1.113281 -3.082031 L 1.113281 0.679688 L 1.59375 0.679688 L 1.59375 -3.8125 C 1.851562 -4.273438 2.066406 -4.761719 2.238281 -5.28125 Z M 2.207031 -4.375 L 2.207031 -3.914062 L 6.21875 -3.914062 L 6.21875 -4.375 L 4.480469 -4.375 C 4.386719 -4.773438 4.285156 -5.125 4.179688 -5.433594 L 3.671875 -5.347656 C 3.792969 -5.054688 3.90625 -4.726562 4 -4.375 Z M 2.09375 -0.121094 L 2.09375 0.351562 L 6.394531 0.351562 L 6.394531 -0.121094 L 4.878906 -0.121094 C 5.214844 -1.058594 5.5 -2.140625 5.734375 -3.359375 L 5.273438 -3.480469 C 5.019531 -2.132812 4.726562 -1.011719 4.386719 -0.121094 Z M 3.027344 -3.40625 L 2.585938 -3.273438 C 2.867188 -2.328125 3.101562 -1.347656 3.28125 -0.332031 L 3.726562 -0.453125 C 3.519531 -1.558594 3.285156 -2.546875 3.027344 -3.40625 Z "/>
</g>
</g>
</defs>
<g fill="rgb(100%, 100%, 100%)" fill-opacity="1">
<use xlink:href="#glyph-0-0" x="30" y="27.067383"/>
<use xlink:href="#glyph-0-1" x="37" y="27.067383"/>
<use xlink:href="#glyph-0-2" x="44" y="27.067383"/>
</g>
</svg>
