<?xml version="1.0" encoding="UTF-8"?>
<svg xmlns="http://www.w3.org/2000/svg" xmlns:xlink="http://www.w3.org/1999/xlink" width="1280" height="720" viewBox="0 0 1280 720">
<defs>
<g>
<g id="glyph-0-0">
<path d="M 7.585938 -8.945312 L 7.585938 -7.894531 C 7.546875 -3.960938 6.464844 -1.105469 4.359375 0.679688 L 5.09375 1.320312 C 7.332031 -0.625 8.480469 -3.691406 8.53125 -7.894531 L 8.53125 -8.945312 L 11.265625 -8.945312 C 11.238281 -4.945312 11.1875 -2.558594 11.105469 -1.773438 C 10.988281 -0.441406 10.53125 0.226562 9.746094 0.226562 C 9.292969 0.226562 8.761719 0.199219 8.132812 0.171875 L 8.375 1.054688 C 9.09375 1.078125 9.601562 1.105469 9.894531 1.105469 C 11.171875 1.105469 11.878906 0.265625 12.039062 -1.386719 C 12.171875 -2.464844 12.238281 -5.292969 12.238281 -9.867188 L 5.613281 -9.867188 L 5.613281 -8.945312 Z M 2.464844 -4.011719 L 2.464844 1.332031 L 3.386719 1.332031 L 3.386719 -4.1875 C 4 -3.652344 4.601562 -3.011719 5.199219 -2.238281 L 5.71875 -3.039062 C 5.386719 -3.414062 5.027344 -3.761719 4.640625 -4.09375 C 5.132812 -4.425781 5.574219 -4.878906 5.972656 -5.441406 L 5.386719 -6.027344 C 4.960938 -5.386719 4.507812 -4.894531 4.054688 -4.574219 C 3.839844 -4.746094 3.625 -4.90625 3.386719 -5.066406 L 3.386719 -5.160156 C 4.066406 -6.105469 4.558594 -7.066406 4.878906 -8.027344 L 4.878906 -8.8125 L 3.039062 -8.8125 L 3.507812 -9 C 3.332031 -9.585938 3.078125 -10.226562 2.746094 -10.917969 L 1.8125 -10.667969 C 2.132812 -10.066406 2.398438 -9.453125 2.613281 -8.8125 L 0.8125 -8.8125 L 0.8125 -7.933594 L 3.945312 -7.933594 C 3.386719 -6.441406 2.238281 -4.894531 0.519531 -3.320312 L 0.800781 -2.347656 C 1.414062 -2.90625 1.960938 -3.453125 2.464844 -4.011719 Z "/>
</g>
<g id="glyph-0-1">
<path d="M 12.160156 -10.105469 L 5.933594 -10.105469 L 5.933594 1.347656 L 6.851562 1.347656 L 6.851562 0.507812 L 11.226562 0.507812 L 11.226562 1.332031 L 12.160156 1.332031 Z M 6.851562 -0.398438 L 6.851562 -2.761719 L 11.226562 -2.761719 L 11.226562 -0.398438 Z M 6.851562 -3.652344 L 6.851562 -6.011719 L 11.226562 -6.011719 L 11.226562 -3.652344 Z M 6.851562 -6.90625 L 6.851562 -9.199219 L 11.226562 -9.199219 L 11.226562 -6.90625 Z M 3.585938 -5.640625 C 3.960938 -5.148438 4.398438 -4.507812 4.90625 -3.734375 L 5.425781 -4.507812 C 4.8125 -5.292969 4.199219 -6.011719 3.585938 -6.652344 L 3.585938 -7.359375 L 5.304688 -7.359375 L 5.304688 -8.28125 L 3.585938 -8.28125 L 3.585938 -10.878906 L 2.640625 -10.878906 L 2.640625 -8.28125 L 0.761719 -8.28125 L 0.761719 -7.359375 L 2.613281 -7.359375 C 2.1875 -5.691406 1.492188 -4.214844 0.519531 -2.921875 L 0.894531 -1.972656 C 1.613281 -3.011719 2.1875 -4.160156 2.640625 -5.441406 L 2.640625 1.320312 L 3.585938 1.320312 Z "/>
</g>
<g id="glyph-0-2">
<path d="M 3.585938 -10.972656 C 2.933594 -8.90625 1.894531 -7.078125 0.480469 -5.480469 L 0.785156 -4.453125 C 1.304688 -5 1.785156 -5.574219 2.226562 -6.160156 L 2.226562 1.359375 L 3.1875 1.359375 L 3.1875 -7.625 C 3.707031 -8.546875 4.132812 -9.519531 4.480469 -10.558594 Z M 4.414062 -8.746094 L 4.414062 -7.828125 L 12.441406 -7.828125 L 12.441406 -8.746094 L 8.960938 -8.746094 C 8.773438 -9.546875 8.574219 -10.253906 8.359375 -10.867188 L 7.347656 -10.691406 C 7.585938 -10.105469 7.8125 -9.453125 8 -8.746094 Z M 4.1875 -0.238281 L 4.1875 0.707031 L 12.785156 0.707031 L 12.785156 -0.238281 L 9.757812 -0.238281 C 10.425781 -2.121094 11 -4.28125 11.464844 -6.71875 L 10.546875 -6.960938 C 10.039062 -4.265625 9.453125 -2.027344 8.773438 -0.238281 Z M 6.054688 -6.8125 L 5.171875 -6.546875 C 5.734375 -4.652344 6.199219 -2.691406 6.558594 -0.667969 L 7.453125 -0.90625 C 7.039062 -3.121094 6.574219 -5.09375 6.054688 -6.8125 Z "/>
</g>
<g id="glyph-0-3">
<rect x="0" y="0" width="0" height="0" mask="url(#mask-0)"/>
</g>
<g id="glyph-1-0">
<path d="M 3.996094 0.128906 C 3.082031 0.0859375 2.296875 -0.191406 1.640625 -0.710938 C 0.964844 -1.214844 0.617188 -2.019531 0.597656 -3.132812 C 0.617188 -4.128906 0.976562 -4.914062 1.679688 -5.480469 C 2.367188 -6.050781 3.191406 -6.355469 4.160156 -6.398438 L 4.238281 -9.199219 L 4.65625 -9.199219 L 4.734375 -6.398438 C 5.710938 -6.355469 6.539062 -6.050781 7.226562 -5.480469 C 7.921875 -4.914062 8.277344 -4.128906 8.292969 -3.132812 C 8.277344 -2.019531 7.933594 -1.214844 7.265625 -0.710938 C 6.609375 -0.195312 5.820312 0.0859375 4.894531 0.128906 L 4.933594 3.105469 L 3.957031 3.105469 Z M 4.132812 -6.003906 C 3.320312 -5.910156 2.726562 -5.589844 2.34375 -5.039062 C 1.960938 -4.488281 1.769531 -3.851562 1.769531 -3.132812 C 1.769531 -2.402344 1.976562 -1.765625 2.390625 -1.222656 C 2.789062 -0.671875 3.328125 -0.355469 4.011719 -0.265625 Z M 4.882812 -0.265625 C 5.582031 -0.351562 6.125 -0.671875 6.515625 -1.222656 C 6.910156 -1.765625 7.113281 -2.402344 7.121094 -3.132812 C 7.121094 -3.851562 6.9375 -4.488281 6.5625 -5.039062 C 6.175781 -5.589844 5.574219 -5.910156 4.757812 -6.003906 Z "/>
</g>
</g>
<image id="source-7" x="0" y="0" width="0" height="0"/>
<mask id="mask-0">
<use xlink:href="#source-7"/>
</mask>
</defs>
<g fill="rgb(100%, 100%, 100%)" fill-opacity="1">
<use xlink:href="#glyph-0-0" x="30" y="34.132812"/>
<use xlink:href="#glyph-0-1" x="43" y="34.132812"/>
<use xlink:href="#glyph-0-2" x="56" y="34.132812"/>
<use xlink:href="#glyph-0-3" x="69" y="34.132812"/>
</g>
<g fill="rgb(100%, 100%, 100%)" fill-opacity="1">
<use xlink:href="#glyph-1-0" x="73" y="33.493164"/>
</g>
</svg>
